<svg xmlns="http://www.w3.org/2000/svg" id="Layer_1" viewBox="0 0 192 192" width="192" height="192"><style id="style2">.st0{fill:#135758;}</style><path id="path22" d="M89.315 54.6c.8-1 2.3-1.5 3.6-1.5 2.4 0 4.8.1 7.2.3 1 0 2.2-.4 2.1-1.6v-24c-2-.2-4-.3-6.1-.3-37.8 0-68.5 30.7-68.5 68.5s30.6 68.5 68.5 68.5c2.3 0 4.5-.1 6.7-.3v-22c0-1.3 1.4-2 2.5-2.2 1.8-.1 3.7-.3 5.5-.5 1.4-.2 2.8-1 3.6-2.1 2-2.9 4-5.8 5.9-8.7.7-1.1 1-2.7.4-3.9-1-2-2-4.1-3-6.1-.6-1.2-1.7-.8-2.4.1-1.3 2.2-2.7 4.5-4 6.7-.8 1.2-2.3 2.1-3.8 2.3-2.6.1-5.1.2-7.7.3-1.3 0-1.9-.9-1.2-2.1 3.8-6 7.4-12.1 10.9-18.2.8-1.3 2.3-2.3 3.8-2.3 2.4-.1 4.9-.1 7.3-.1 1.4-.1 2.7-1.1 3.4-2.3l3.3-6.6c.6-1.3.5-3-.1-4.3-3.1-6-6.4-11.9-9.9-17.6-.6-.9-1.7-1.3-2.3-.2-1.1 2.1-2.2 4.1-3.3 6.2-.7 1.3-.5 3.1.2 4.4l3.9 6.9c.6 1.1.2 2.2-1.2 2.2-2.5-.1-5.1-.1-7.6-.1-1.6-.1-3.1-1-3.9-2.4-1.4-2.4-2.7-4.7-4.1-7.1-.8-1.3-2.4-2.2-4-2.3h-8.2c-1.6.1-3.2.9-4 2.3-3.9 6.2-7.5 12.4-11.1 18.8-.6 1.2 0 2.3 1.3 2.3h8.1c1.6 0 3.2-1 4-2.3 1.4-2.4 2.8-4.8 4.1-7.2.7-1.2 2-1.2 2.7 0 1.4 2.4 2.8 4.8 4.1 7.2.8 1.4.7 3.3 0 4.7-1.4 2.4-2.8 4.8-4.2 7.1-.8 1.3-2.4 2.2-4 2.3-2.7 0-5.5 0-8.2-.1-1.5 0-3.1.8-3.9 2.1-1.2 2.1-2.4 4.3-3.7 6.4-.6 1.1.2 2 1.4 2.1l7.8.3c1.5.1 3.1.9 3.9 2.1 1.3 2 2.6 4 4 6 .7 1.1-.1 1.8-1.3 1.9-6.6-.1-13.2-.3-19.8-.9-1.4-.2-2.8-1-3.7-2.1-1.4-2-2.8-4.1-4.1-6.1-.7-1.2-.9-2.7-.4-4 1-2 2.1-4.1 3.1-6.1.6-1.3.5-3.1-.2-4.3-1.3-2.3-2.6-4.6-3.8-6.9-.6-1.1-1.7-1.2-2.3-.1-1.1 2.1-2.1 4.3-3.2 6.5-.5 1.1-1.8 1.9-3 1.9-2-.2-4-.3-6-.5-1.1-.1-1.4-1.2-1.1-2.1 2.3-5.7 4.8-11.3 7.6-16.9.6-1.2 1.9-2.2 3.3-2.2 2.4-.1 4.7-.1 7.1-.2 1.5-.1 2.9-1 3.7-2.3 1.3-2.4 2.6-4.7 4-7 .7-1.3.8-3 .2-4.4-1.1-2.1-2.3-4.2-3.4-6.3-.6-1.1-1.8-.8-2.4.2-1.4 2.2-2.7 4.4-4 6.6-.8 1.2-2.1 2.2-3.5 2.3-2.2.2-4.3.3-6.5.5-1.2.1-1.3-1.1-.8-1.9 3.1-5.7 6.5-11.2 10.2-16.6.8-1.1 2.1-2 3.5-2.2 2.3-.3 4.6-.5 6.9-.7 1.3-.1 2.7.5 3.4 1.6 1.2 1.9 2.3 3.8 3.5 5.7.8 1.2 2.3 1.9 3.8 1.9 7-.2 14-.2 20.9.1 1.2 0 1.9-.9 1.2-2-1.3-2.1-2.7-4.1-4.1-6.1-.9-1.2-2.4-1.9-3.8-1.9-2.5-.1-5.1-.1-7.6-.1-1.1 0-1.9-.7-1.2-1.8 1.5-1.8 2.7-3.5 4-5.2z" class="st0" fill="#135758"/></svg>